HIERARCHY
ROOT newVegas:Hips
{
	OFFSET 0.000000 96.479958 0.000000
	CHANNELS 6 Xposition Yposition Zposition Xrotation Yrotation Zrotation
	JOINT newVegas:Pelvis
	{
		OFFSET 0.000000 0.000000 0.000000
		CHANNELS 3 Xrotation Yrotation Zrotation
		JOINT newVegas:LeftUpLeg
		{
			OFFSET 18.735201 -5.666702 -4.541200
			CHANNELS 3 Xrotation Yrotation Zrotation
			JOINT newVegas:LeftLeg
			{
				OFFSET -0.021200 -31.938179 0.493100
				CHANNELS 3 Xrotation Yrotation Zrotation
				JOINT newVegas:LeftFoot
				{
					OFFSET 0.021200 -31.938179 -4.336299
					CHANNELS 3 Xrotation Yrotation Zrotation
					JOINT newVegas:LeftToeBase
					{
						OFFSET 0.943001 -26.722000 15.023500
						CHANNELS 3 Xrotation Yrotation Zrotation
						End Site
						{
							OFFSET 0.000000 30.670183 0.000000
						}
					}
				}
				JOINT newVegas:Left_PantLeg
				{
					OFFSET 0.663870 -9.044666 -1.108900
					CHANNELS 3 Xrotation Yrotation Zrotation
					End Site
					{
						OFFSET 1.415995 20.635357 0.000000
					}
				}
			}
		}
		JOINT newVegas:RightUpLeg
		{
			OFFSET -18.735201 -5.666702 -4.541200
			CHANNELS 3 Xrotation Yrotation Zrotation
			JOINT newVegas:RightLeg
			{
				OFFSET 0.018946 -31.938133 0.493100
				CHANNELS 3 Xrotation Yrotation Zrotation
				JOINT newVegas:RightFoot
				{
					OFFSET -0.018946 -31.938126 -4.336299
					CHANNELS 3 Xrotation Yrotation Zrotation
					JOINT newVegas:RightToeBase
					{
						OFFSET -0.943001 -26.722004 15.023500
						CHANNELS 3 Xrotation Yrotation Zrotation
						End Site
						{
							OFFSET 0.000000 30.670187 0.000000
						}
					}
				}
				JOINT newVegas:Right_PantLeg
				{
					OFFSET -0.661674 -9.044716 -1.108900
					CHANNELS 3 Xrotation Yrotation Zrotation
					End Site
					{
						OFFSET -1.415958 20.635269 0.000000
					}
				}
			}
		}
	}
	JOINT newVegas:Spine
	{
		OFFSET 0.000000 10.199997 -0.299500
		CHANNELS 3 Xrotation Yrotation Zrotation
		JOINT newVegas:Spine1
		{
			OFFSET 0.000000 11.900002 -1.516600
			CHANNELS 3 Xrotation Yrotation Zrotation
			JOINT newVegas:Spine2
			{
				OFFSET 0.000000 13.600006 -2.842500
				CHANNELS 3 Xrotation Yrotation Zrotation
				JOINT newVegas:Neck
				{
					OFFSET 0.000000 9.624100 -2.890100
					CHANNELS 3 Xrotation Yrotation Zrotation
					JOINT newVegas:Head
					{
						OFFSET 0.000000 14.068802 -1.351900
						CHANNELS 3 Xrotation Yrotation Zrotation
						JOINT newVegas:Hair_Back
						{
							OFFSET 0.000000 3.231903 -17.524799
							CHANNELS 3 Xrotation Yrotation Zrotation
							End Site
							{
								OFFSET 0.000000 19.849884 0.000000
							}
						}
						JOINT newVegas:Hair_Front
						{
							OFFSET 0.000000 31.260406 4.573800
							CHANNELS 3 Xrotation Yrotation Zrotation
							JOINT newVegas:Hair_Front1
							{
								OFFSET 0.000000 2.284103 11.993300
								CHANNELS 3 Xrotation Yrotation Zrotation
								JOINT newVegas:Hair_Front2
								{
									OFFSET 0.000000 2.284103 11.993300
									CHANNELS 3 Xrotation Yrotation Zrotation
									End Site
									{
										OFFSET 0.000000 12.208862 0.000000
									}
								}
							}
						}
						JOINT newVegas:Jowel
						{
							OFFSET 0.000000 -7.458206 6.864100
							CHANNELS 3 Xrotation Yrotation Zrotation
							End Site
							{
								OFFSET 0.000000 19.849884 0.000000
							}
						}
					}
				}
				JOINT newVegas:LeftShoulder
				{
					OFFSET 15.263000 10.923401 -0.547700
					CHANNELS 3 Xrotation Yrotation Zrotation
					JOINT newVegas:LeftArm
					{
						OFFSET 25.438599 -2.830597 -13.032500
						CHANNELS 3 Xrotation Yrotation Zrotation
						JOINT newVegas:LeftForeArm
						{
							OFFSET 29.960503 0.000000 0.000000
							CHANNELS 3 Xrotation Yrotation Zrotation
							JOINT newVegas:LeftHand
							{
								OFFSET 27.849251 0.000000 0.000000
								CHANNELS 3 Xrotation Yrotation Zrotation
								JOINT newVegas:LeftHandThumb1
								{
									OFFSET 4.487587 -3.305161 6.305391
									CHANNELS 3 Xrotation Yrotation Zrotation
									JOINT newVegas:LeftHandThumb2
									{
										OFFSET 5.480453 -3.164139 3.164143
										CHANNELS 3 Xrotation Yrotation Zrotation
										JOINT newVegas:LeftHandThumb3
										{
											OFFSET 5.159721 -2.978973 2.978967
											CHANNELS 3 Xrotation Yrotation Zrotation
											End Site
											{
												OFFSET 2.494507 5.926697 1.738678
											}
										}
									}
								}
								JOINT newVegas:LeftHandIndex1
								{
									OFFSET 18.578728 -0.527832 5.208049
									CHANNELS 3 Xrotation Yrotation Zrotation
									JOINT newVegas:LeftHandIndex2
									{
										OFFSET 3.192009 0.000000 0.000000
										CHANNELS 3 Xrotation Yrotation Zrotation
										JOINT newVegas:LeftHandIndex3
										{
											OFFSET 3.835129 0.000000 0.000000
											CHANNELS 3 Xrotation Yrotation Zrotation
											End Site
											{
												OFFSET -0.034599 3.816971 0.371180
											}
										}
									}
								}
								JOINT newVegas:LeftHandMiddle1
								{
									OFFSET 18.476105 0.000000 0.000000
									CHANNELS 3 Xrotation Yrotation Zrotation
									JOINT newVegas:LeftHandMiddle2
									{
										OFFSET 3.324875 0.000000 0.000000
										CHANNELS 3 Xrotation Yrotation Zrotation
										JOINT newVegas:LeftHandMiddle3
										{
											OFFSET 4.596550 0.000000 0.000000
											CHANNELS 3 Xrotation Yrotation Zrotation
											End Site
											{
												OFFSET 0.057701 4.578827 0.399218
											}
										}
									}
								}
								JOINT newVegas:LeftHandRing1
								{
									OFFSET 17.732719 0.121887 -4.201567
									CHANNELS 3 Xrotation Yrotation Zrotation
									JOINT newVegas:LeftHandRing2
									{
										OFFSET 2.733170 0.000000 0.000000
										CHANNELS 3 Xrotation Yrotation Zrotation
										JOINT newVegas:LeftHandRing3
										{
											OFFSET 3.178268 0.000000 0.000000
											CHANNELS 3 Xrotation Yrotation Zrotation
											End Site
											{
												OFFSET 0.119102 3.170624 0.185394
											}
										}
									}
								}
								JOINT newVegas:LeftHandPinky1
								{
									OFFSET 15.989624 -0.606689 -7.535461
									CHANNELS 3 Xrotation Yrotation Zrotation
									JOINT newVegas:LeftHandPinky2
									{
										OFFSET 2.538986 0.000000 0.000000
										CHANNELS 3 Xrotation Yrotation Zrotation
										JOINT newVegas:LeftHandPinky3
										{
											OFFSET 2.593102 0.000000 0.000000
											CHANNELS 3 Xrotation Yrotation Zrotation
											End Site
											{
												OFFSET -0.150902 2.584198 0.152708
											}
										}
									}
								}
							}
							JOINT newVegas:Left_Sleeve
							{
								OFFSET 0.267448 -0.649796 0.577675
								CHANNELS 3 Xrotation Yrotation Zrotation
								End Site
								{
									OFFSET 0.000000 15.991241 0.000000
								}
							}
							JOINT newVegas:Left_CapeC
							{
								OFFSET 15.715958 -8.608795 -6.935905
								CHANNELS 3 Xrotation Yrotation Zrotation
								JOINT newVegas:Left_CapeC1
								{
									OFFSET 0.000000 -8.688499 0.000000
									CHANNELS 3 Xrotation Yrotation Zrotation
									End Site
									{
										OFFSET 0.000000 8.688499 0.000000
									}
								}
							}
						}
						JOINT newVegas:Left_CapeB
						{
							OFFSET 26.118385 -8.608795 -7.079235
							CHANNELS 3 Xrotation Yrotation Zrotation
							JOINT newVegas:Left_CapeB1
							{
								OFFSET 0.000000 -8.688499 0.000000
								CHANNELS 3 Xrotation Yrotation Zrotation
								End Site
								{
									OFFSET 0.000000 8.688499 0.000000
								}
							}
						}
						JOINT newVegas:Left_CapeA
						{
							OFFSET 5.115639 -8.608795 -10.395809
							CHANNELS 3 Xrotation Yrotation Zrotation
							JOINT newVegas:Left_CapeA1
							{
								OFFSET 0.000000 -8.688499 0.000000
								CHANNELS 3 Xrotation Yrotation Zrotation
								End Site
								{
									OFFSET 0.000000 8.688499 0.000000
								}
							}
						}
					}
				}
				JOINT newVegas:RightShoulder
				{
					OFFSET -15.263000 10.923401 -0.547700
					CHANNELS 3 Xrotation Yrotation Zrotation
					JOINT newVegas:RightArm
					{
						OFFSET -25.438599 -2.830597 -13.032500
						CHANNELS 3 Xrotation Yrotation Zrotation
						JOINT newVegas:RightForeArm
						{
							OFFSET -29.960503 0.000000 0.000000
							CHANNELS 3 Xrotation Yrotation Zrotation
							JOINT newVegas:RightHand
							{
								OFFSET -27.849251 0.000000 0.000000
								CHANNELS 3 Xrotation Yrotation Zrotation
								JOINT newVegas:RightHandThumb1
								{
									OFFSET -4.487587 -3.305161 6.305391
									CHANNELS 3 Xrotation Yrotation Zrotation
									JOINT newVegas:RightHandThumb2
									{
										OFFSET -5.480453 -3.164139 3.164143
										CHANNELS 3 Xrotation Yrotation Zrotation
										JOINT newVegas:RightHandThumb3
										{
											OFFSET -5.159721 -2.978973 2.978967
											CHANNELS 3 Xrotation Yrotation Zrotation
											End Site
											{
												OFFSET -2.494507 5.926697 1.738678
											}
										}
									}
								}
								JOINT newVegas:RightHandIndex1
								{
									OFFSET -18.578728 -0.527832 5.208049
									CHANNELS 3 Xrotation Yrotation Zrotation
									JOINT newVegas:RightHandIndex2
									{
										OFFSET -3.192009 0.000000 0.000000
										CHANNELS 3 Xrotation Yrotation Zrotation
										JOINT newVegas:RightHandIndex3
										{
											OFFSET -3.835129 0.000000 0.000000
											CHANNELS 3 Xrotation Yrotation Zrotation
											End Site
											{
												OFFSET 0.034599 3.816971 0.371180
											}
										}
									}
								}
								JOINT newVegas:RightHandMiddle1
								{
									OFFSET -18.476105 0.000000 0.000000
									CHANNELS 3 Xrotation Yrotation Zrotation
									JOINT newVegas:RightHandMiddle2
									{
										OFFSET -3.324875 0.000000 0.000000
										CHANNELS 3 Xrotation Yrotation Zrotation
										JOINT newVegas:RightHandMiddle3
										{
											OFFSET -4.596550 0.000000 0.000000
											CHANNELS 3 Xrotation Yrotation Zrotation
											End Site
											{
												OFFSET -0.057701 4.578827 0.399218
											}
										}
									}
								}
								JOINT newVegas:RightHandRing1
								{
									OFFSET -17.732719 0.121887 -4.201567
									CHANNELS 3 Xrotation Yrotation Zrotation
									JOINT newVegas:RightHandRing2
									{
										OFFSET -2.733170 0.000000 0.000000
										CHANNELS 3 Xrotation Yrotation Zrotation
										JOINT newVegas:RightHandRing3
										{
											OFFSET -3.178268 0.000000 0.000000
											CHANNELS 3 Xrotation Yrotation Zrotation
											End Site
											{
												OFFSET -0.119102 3.170624 0.185394
											}
										}
									}
								}
								JOINT newVegas:RightHandPinky1
								{
									OFFSET -15.989624 -0.606689 -7.535461
									CHANNELS 3 Xrotation Yrotation Zrotation
									JOINT newVegas:RightHandPinky2
									{
										OFFSET -2.538986 0.000000 0.000000
										CHANNELS 3 Xrotation Yrotation Zrotation
										JOINT newVegas:RightHandPinky3
										{
											OFFSET -2.593102 0.000000 0.000000
											CHANNELS 3 Xrotation Yrotation Zrotation
											End Site
											{
												OFFSET 0.150902 2.584198 0.152708
											}
										}
									}
								}
							}
							JOINT newVegas:Right_CapeC
							{
								OFFSET -15.715958 -8.608795 -6.935905
								CHANNELS 3 Xrotation Yrotation Zrotation
								JOINT newVegas:Right_CapeC1
								{
									OFFSET 0.000000 -8.688499 0.000000
									CHANNELS 3 Xrotation Yrotation Zrotation
									End Site
									{
										OFFSET 0.000000 8.688499 0.000000
									}
								}
							}
							JOINT newVegas:Right_Sleeve
							{
								OFFSET -0.267448 -0.649994 0.577675
								CHANNELS 3 Xrotation Yrotation Zrotation
								End Site
								{
									OFFSET 0.000000 15.991302 0.000000
								}
							}
						}
						JOINT newVegas:Right_CapeA
						{
							OFFSET -5.115540 -8.608795 -10.395824
							CHANNELS 3 Xrotation Yrotation Zrotation
							JOINT newVegas:Right_CapeA1
							{
								OFFSET 0.000000 -8.688499 0.000000
								CHANNELS 3 Xrotation Yrotation Zrotation
								End Site
								{
									OFFSET 0.000000 8.688499 0.000000
								}
							}
						}
						JOINT newVegas:Right_CapeB
						{
							OFFSET -26.118187 -8.608795 -7.079266
							CHANNELS 3 Xrotation Yrotation Zrotation
							JOINT newVegas:Right_CapeB1
							{
								OFFSET 0.000000 -8.688499 0.000000
								CHANNELS 3 Xrotation Yrotation Zrotation
								End Site
								{
									OFFSET 0.000000 8.688499 0.000000
								}
							}
						}
					}
				}
				JOINT newVegas:Left_Collar
				{
					OFFSET 18.625099 8.655502 8.828100
					CHANNELS 3 Xrotation Yrotation Zrotation
					JOINT newVegas:Left_Collar1
					{
						OFFSET 14.783401 10.540405 -1.259500
						CHANNELS 3 Xrotation Yrotation Zrotation
						End Site
						{
							OFFSET 0.000000 18.199875 0.000000
						}
					}
				}
				JOINT newVegas:Collar_Back
				{
					OFFSET 0.000000 15.630707 -20.132601
					CHANNELS 3 Xrotation Yrotation Zrotation
					End Site
					{
						OFFSET 0.000000 22.523010 0.000000
					}
				}
				JOINT newVegas:Left_Peck
				{
					OFFSET 17.239599 -5.132599 25.482599
					CHANNELS 3 Xrotation Yrotation Zrotation
					End Site
					{
						OFFSET 0.000000 22.523010 0.000000
					}
				}
				JOINT newVegas:Right_Peck
				{
					OFFSET -17.239599 -5.132202 25.482599
					CHANNELS 3 Xrotation Yrotation Zrotation
					End Site
					{
						OFFSET 0.000000 22.523010 0.000000
					}
				}
				JOINT newVegas:Right_Collar
				{
					OFFSET -18.625099 8.655792 8.828100
					CHANNELS 3 Xrotation Yrotation Zrotation
					JOINT newVegas:Right_Collar1
					{
						OFFSET -14.783401 10.539993 -1.259500
						CHANNELS 3 Xrotation Yrotation Zrotation
						End Site
						{
							OFFSET 0.000000 18.199631 0.000000
						}
					}
				}
			}
		}
		JOINT newVegas:Belly
		{
			OFFSET 0.000000 -6.540398 9.014299
			CHANNELS 3 Xrotation Yrotation Zrotation
			End Site
			{
				OFFSET 0.000000 11.566666 0.000000
			}
		}
	}
	JOINT newVegas:ElvisFacialAnim_Joint
	{
		OFFSET 1.000000 -95.330101 -8.825800
		CHANNELS 3 Xrotation Yrotation Zrotation
		End Site
		{
			OFFSET 0.000000 35.315800 0.000000
		}
	}
}
MOTION
Frames: 4
Frame Time: 0.016667
17.244299 11.326668 -8.048241 -116.140236 73.672306 35.205606 -0.000000 -0.000000 -0.000000 -111.123175 14.772391 -6.595281 89.201738 12.582707 1.534855 18.758227 -0.247359 7.018309 -0.000001 -0.000000 0.000000 -0.000002 0.000001 0.000001 -44.554765 -2.315150 10.011933 81.032333 -13.069368 -4.300977 48.203790 -3.231674 0.901633 -0.000000 0.000000 -0.000001 0.000001 0.000000 -0.000001 15.161329 -11.265998 -7.693266 10.269404 -4.988679 -4.175169 10.075515 -5.450796 -4.055228 -1.741111 2.381304 -5.852999 -1.741095 2.381302 -5.852997 0.000000 0.000000 -0.000000 -1.741069 2.381310 -5.853004 -1.741102 2.381293 -5.852988 -0.000001 -0.000001 0.000003 0.000000 0.000000 -0.000002 4.010590 -4.908953 30.425931 -98.272161 29.592949 -48.772274 0.000001 -29.022075 0.000000 0.131366 16.629456 8.536193 -1.540032 3.690187 6.142357 3.939049 7.948710 0.746807 0.000001 -0.000001 -0.000004 0.000002 -0.000005 0.000008 -0.000001 0.000008 -0.000021 0.000000 0.000002 -0.000000 -0.000000 -0.001932 0.015988 0.000002 0.001927 -0.016004 -0.000001 0.000002 0.000001 -0.000000 -0.000001 0.000010 0.000001 0.000009 -0.000023 0.000000 -0.000001 0.000000 -0.018087 4.054256 0.511074 -0.018087 -4.054247 -0.511082 0.000001 -0.000002 0.000002 0.000000 0.000000 0.000000 0.000000 0.000000 0.000000 0.000000 -0.000000 0.000000 0.000000 -0.000001 -0.000000 0.000000 -0.000002 -0.000000 0.000000 -0.000001 -0.000000 0.000000 -0.000002 0.000000 5.201615 10.649076 -16.868033 -39.319514 45.122805 97.301222 0.001023 102.936565 -0.001005 5.604809 -5.065553 40.880772 -1.849250 -3.581793 -6.586158 4.637189 -8.634130 -0.225408 0.000000 -0.000003 -0.000001 0.000003 -0.000002 -0.000007 -0.000002 0.000002 0.000018 0.000001 0.000000 -0.000000 0.000003 -0.000001 -0.000008 -0.000001 0.000002 0.000022 0.000000 0.000000 0.000001 0.000003 -0.000000 -0.000017 -0.000001 -0.000002 0.000017 -0.000001 0.000001 0.000001 0.000002 0.000007 0.000002 -0.000007 -0.000002 -0.000001 -0.000001 0.000002 0.000000 -0.000000 0.000001 0.000003 0.000000 0.000001 0.000004 0.000000 0.000001 0.000003 -0.000003 0.000001 0.000001 -0.000003 0.000001 0.000002 -0.000003 0.000001 0.000001 -0.000003 0.000001 0.000002 -0.000002 -0.000001 0.000001 -0.000002 -0.000001 0.000001 -0.000002 -0.000001 0.000001 -0.000002 -0.000001 0.000001 -0.000002 -0.000001 0.000001 -0.000002 -0.000001 0.000001 -0.000002 -0.000001 0.000001 -0.000001 0.000001 -0.000000 -0.000000 -0.000000 -0.000000 
17.202732 11.317818 -8.053131 -116.136712 73.605438 35.185112 -0.000000 0.000000 0.000000 -110.981217 14.738505 -6.479258 89.626439 12.035901 1.430013 17.553217 -0.322483 6.674660 0.000000 -0.000000 -0.000000 -0.000003 0.000000 0.000000 -44.559454 -2.343629 10.007488 80.990238 -13.083823 -4.313161 48.276911 -3.212188 0.807628 -0.000001 0.000001 0.000000 0.000003 0.000001 -0.000001 15.106403 -11.261758 -7.638127 10.226777 -5.010025 -4.150920 10.032180 -5.472369 -4.029278 -1.715159 2.391248 -5.863784 -1.715167 2.391258 -5.863783 -0.000000 -0.000002 0.000000 -1.715129 2.391228 -5.863784 -1.715136 2.391281 -5.863787 0.000003 0.000001 0.000001 -0.000000 -0.000002 -0.000000 4.063074 -4.848789 30.216750 -98.229417 29.536159 -48.772810 -0.000003 -28.953100 -0.000001 0.230758 16.505007 8.705509 -1.540038 3.690189 6.142349 3.939050 7.948698 0.746810 0.000001 -0.000000 -0.000006 0.000002 0.000002 0.000008 -0.000003 0.000010 -0.000017 0.000000 0.000001 0.000001 0.000007 -0.001930 0.015990 -0.000001 0.001935 -0.015999 0.000002 -0.000000 0.000001 0.000001 -0.000003 0.000012 0.000001 0.000009 -0.000023 0.000001 0.000001 -0.000001 -0.018088 4.054251 0.511079 -0.018086 -4.054249 -0.511083 0.000000 0.000000 0.000001 0.000000 0.000000 0.000000 0.000000 0.000000 0.000000 0.000000 0.000000 0.000000 -0.000000 0.000001 -0.000000 -0.000000 0.000000 -0.000000 -0.000000 0.000001 -0.000000 -0.000000 -0.000000 0.000000 5.188628 10.588822 -17.043086 -39.537803 45.274192 97.619803 -0.000828 102.793760 0.000808 6.308726 -5.800632 39.941280 -1.849254 -3.581792 -6.586138 4.637190 -8.634127 -0.225390 0.000001 -0.000000 -0.000001 -0.000002 0.000001 -0.000013 -0.000004 -0.000001 0.000038 -0.000001 -0.000001 -0.000002 -0.000002 0.000004 -0.000004 0.000002 -0.000002 0.000025 -0.000001 0.000000 0.000001 -0.000003 0.000003 -0.000014 0.000003 -0.000004 0.000023 -0.000001 0.000001 0.000002 -0.000002 0.000009 -0.000006 0.000000 -0.000002 0.000025 -0.000000 -0.000002 0.000000 -0.000000 -0.000000 -0.000001 -0.000000 0.000000 0.000001 0.000000 -0.000000 -0.000001 0.000001 0.000002 0.000001 0.000001 0.000002 0.000001 0.000001 0.000002 0.000001 0.000001 0.000002 0.000001 -0.000001 0.000000 -0.000000 -0.000001 0.000000 -0.000000 -0.000001 0.000000 -0.000000 -0.000001 0.000000 -0.000000 -0.000001 0.000000 -0.000000 -0.000001 0.000000 -0.000000 -0.000001 0.000000 -0.000000 -0.000000 0.000001 -0.000000 -0.000000 0.000000 0.000000 
17.165236 11.312706 -8.059319 -116.140209 73.540121 35.170106 -0.000001 -0.000001 0.000001 -110.834456 14.694604 -6.360402 90.035123 11.504826 1.326866 16.391940 -0.388469 6.345466 -0.000001 -0.000001 -0.000000 -0.000001 0.000000 0.000002 -44.555814 -2.377662 10.005692 80.949210 -13.086376 -4.324273 48.342593 -3.206793 0.722891 0.000001 0.000000 -0.000003 0.000001 -0.000001 0.000000 15.053623 -11.257787 -7.583002 10.185746 -5.031181 -4.126519 9.990491 -5.493607 -4.003249 -1.688061 2.401393 -5.878953 -1.688062 2.401395 -5.878953 0.000000 -0.000002 -0.000000 -1.688049 2.401382 -5.878942 -1.688061 2.401382 -5.878951 -0.000000 -0.000001 -0.000001 0.000000 -0.000002 0.000000 4.107879 -4.790342 29.995049 -98.160241 29.449539 -48.783530 -0.000000 -28.882999 0.000000 0.431179 16.400592 8.843813 -1.540035 3.690187 6.142350 3.939047 7.948707 0.746799 0.000002 -0.000000 -0.000001 0.000000 0.000006 0.000009 0.000001 0.000001 -0.000022 0.000000 -0.000001 -0.000001 0.000000 -0.001932 0.015989 0.000000 0.001931 -0.016001 0.000000 -0.000001 0.000002 -0.000001 0.000005 0.000010 0.000001 0.000002 -0.000019 0.000001 -0.000001 -0.000000 -0.018090 4.054256 0.511079 -0.018086 -4.054260 -0.511088 0.000000 0.000000 -0.000000 -0.000000 0.000000 0.000000 -0.000000 0.000000 0.000000 -0.000000 -0.000000 0.000000 0.000000 -0.000002 -0.000000 0.000000 -0.000003 -0.000000 0.000000 -0.000002 -0.000000 0.000000 -0.000003 -0.000000 5.169981 10.526241 -17.181307 -39.744676 45.430013 97.916574 0.000279 102.663412 -0.000270 6.837463 -6.419674 39.016107 -1.849248 -3.581795 -6.586140 4.637200 -8.634129 -0.225394 0.000002 -0.000000 -0.000000 0.000002 0.000001 -0.000009 0.000001 -0.000005 0.000009 0.000000 0.000000 0.000001 -0.000001 0.000002 -0.000007 0.000003 -0.000005 0.000010 0.000001 -0.000000 -0.000002 -0.000001 0.000004 -0.000011 0.000000 -0.000007 0.000012 -0.000000 0.000001 0.000001 -0.000001 0.000003 -0.000013 0.000007 -0.000003 0.000019 0.000000 0.000003 0.000001 -0.000000 0.000000 0.000000 0.000000 -0.000000 0.000000 -0.000000 0.000000 0.000002 -0.000001 -0.000001 -0.000000 -0.000001 -0.000001 -0.000000 -0.000001 -0.000001 -0.000000 -0.000001 -0.000001 0.000000 -0.000001 0.000003 -0.000001 -0.000001 0.000003 -0.000001 -0.000001 0.000003 -0.000001 -0.000001 0.000003 -0.000001 -0.000001 0.000003 -0.000001 -0.000001 0.000003 -0.000001 -0.000001 0.000003 -0.000001 -0.000000 0.000001 0.000000 -0.000001 -0.000001 0.000001 
17.131573 11.310081 -8.064774 -116.151929 73.477126 35.161766 0.000000 -0.000000 -0.000001 -110.686016 14.644083 -6.241163 90.424697 10.996106 1.225707 15.279960 -0.445687 6.039440 0.000001 0.000001 -0.000000 -0.000001 -0.000002 -0.000000 -44.545701 -2.416603 10.003171 80.910243 -13.087260 -4.333986 48.400821 -3.204445 0.638778 -0.000000 -0.000000 0.000000 -0.000000 0.000000 -0.000001 15.003002 -11.253497 -7.529493 10.146126 -5.051347 -4.102144 9.950384 -5.513611 -3.977271 -1.658649 2.411143 -5.897216 -1.658647 2.411148 -5.897213 0.000003 -0.000003 0.000001 -1.658591 2.411136 -5.897222 -1.658695 2.411115 -5.897195 -0.000000 -0.000002 -0.000001 0.000003 -0.000003 -0.000000 4.142341 -4.736916 29.766661 -98.061060 29.336226 -48.805520 0.000000 -28.810158 -0.000000 0.727779 16.318194 8.949750 -1.540034 3.690181 6.142359 3.939051 7.948711 0.746801 -0.000000 -0.000001 -0.000001 0.000000 -0.000000 0.000011 0.000001 0.000002 -0.000019 0.000001 -0.000002 -0.000000 0.000001 -0.001937 0.015989 0.000001 0.001927 -0.016002 0.000000 0.000002 -0.000000 -0.000002 0.000001 0.000012 0.000005 0.000004 -0.000018 -0.000000 0.000001 0.000001 -0.018085 4.054248 0.511077 -0.018088 -4.054247 -0.511079 -0.000001 0.000000 -0.000000 0.000000 0.000000 -0.000000 0.000000 0.000000 -0.000000 0.000000 0.000000 -0.000000 -0.000000 0.000000 -0.000000 -0.000000 -0.000001 -0.000000 -0.000000 0.000000 -0.000000 -0.000000 -0.000001 0.000000 5.149341 10.461789 -17.293231 -39.931591 45.580492 98.183751 0.000420 102.561615 -0.000413 7.264737 -6.997013 38.122773 -1.849253 -3.581797 -6.586145 4.637193 -8.634128 -0.225413 -0.000001 -0.000002 -0.000001 -0.000001 -0.000002 -0.000005 -0.000001 -0.000005 0.000002 0.000001 0.000001 -0.000001 -0.000002 -0.000001 -0.000010 0.000004 -0.000008 0.000002 -0.000000 0.000002 -0.000002 -0.000000 -0.000002 -0.000007 -0.000001 -0.000005 0.000009 -0.000001 0.000001 0.000001 -0.000002 -0.000004 -0.000013 0.000002 0.000001 0.000032 -0.000000 0.000002 0.000001 -0.000000 0.000000 -0.000001 -0.000000 0.000000 0.000003 -0.000000 0.000000 -0.000001 0.000000 0.000001 0.000000 0.000001 0.000001 -0.000000 0.000000 0.000001 0.000000 0.000001 -0.000000 -0.000000 0.000000 -0.000001 -0.000000 0.000000 -0.000001 -0.000000 0.000000 -0.000001 -0.000000 0.000000 -0.000001 -0.000000 0.000000 -0.000001 -0.000000 0.000000 -0.000001 -0.000000 0.000000 -0.000001 -0.000000 -0.000001 -0.000000 -0.000000 0.000000 -0.000000 -0.000001 
